<?xml version="1.0" encoding="utf-8"?>
<!-- Generator: Adobe Illustrator 21.0.1, SVG Export Plug-In . SVG Version: 6.00 Build 0)  -->
<svg version="1.1" id="Layer_1" xmlns="http://www.w3.org/2000/svg" xmlns:xlink="http://www.w3.org/1999/xlink" x="0px" y="0px"
	 viewBox="0 0 262 171" style="enable-background:new 0 0 262 171;" xml:space="preserve">
<style type="text/css">
	.st0{fill:#FFFFFF;stroke:#000000;stroke-miterlimit:10;}
	.st1{fill:#FFFFFF;}
	.st2{fill:none;stroke:#000000;stroke-width:0.5;stroke-miterlimit:10;}
	.st3{fill:none;stroke:#000000;stroke-width:0.5;stroke-miterlimit:10;stroke-dasharray:1.0201,1.0201;}
	.st4{clip-path:url(#SVGID_2_);}
	.st5{clip-path:url(#SVGID_4_);}
	.st6{clip-path:url(#SVGID_6_);}
	.st7{fill:none;stroke:#000000;stroke-width:0.5;stroke-miterlimit:10;stroke-dasharray:1,1;}
	.st8{clip-path:url(#SVGID_8_);}
	.st9{clip-path:url(#SVGID_8_);fill:none;stroke:#000000;stroke-width:0.5174;stroke-miterlimit:10;}
</style>
<g>
	<path d="M124.4,33.9c33.4,0,60.6,27.2,60.6,60.6S157.8,155,124.4,155s-60.6-27.2-60.6-60.6S91,33.9,124.4,33.9 M124.4,29.9
		c-35.7,0-64.6,28.9-64.6,64.6S88.8,159,124.4,159S189,130.1,189,94.4S160.1,29.9,124.4,29.9L124.4,29.9z"/>
</g>
<line class="st0" x1="80.9" y1="137.9" x2="170.1" y2="48.8"/>
<line class="st0" x1="170.1" y1="137.9" x2="80.9" y2="48.8"/>
<line class="st0" x1="125.5" y1="156.4" x2="125.5" y2="30.3"/>
<line class="st0" x1="62.5" y1="93.3" x2="188.5" y2="93.3"/>
<g>
	<line class="st1" x1="164.4" y1="47.5" x2="127" y2="85"/>
	<g>
		<line class="st2" x1="162.3" y1="49.7" x2="162" y2="50"/>
		<line class="st3" x1="161.2" y1="50.7" x2="129.9" y2="82.1"/>
		<line class="st2" x1="129.5" y1="82.5" x2="129.1" y2="82.8"/>
		<g>
			<path d="M164.4,47.5c-1.4,0.6-3.3,1.2-4.7,1.3l2.3,1.1l1.1,2.3C163.2,50.8,163.8,48.9,164.4,47.5z"/>
		</g>
		<g>
			<path d="M127,85c0.6-1.4,1.2-3.3,1.3-4.7l1.1,2.3l2.3,1.1C130.3,83.7,128.4,84.3,127,85z"/>
		</g>
	</g>
</g>
<g>
	<defs>
		<rect id="SVGID_1_" x="22" y="21.7" width="100.7" height="8.4"/>
	</defs>
	<clipPath id="SVGID_2_">
		<use xlink:href="#SVGID_1_"  style="overflow:visible;"/>
	</clipPath>
	<path class="st4" d="M30.1,23.4c0.1-0.5,0.3-0.8,1.2-0.8c0,0,0.2,0,0.2-0.2c0,0,0-0.1-0.1-0.1c-0.4,0-0.8,0-1.1,0
		c-0.4,0-0.8,0-1.1,0c-0.1,0-0.2,0-0.2,0.2c0,0.1,0.1,0.1,0.2,0.1c0.6,0,0.8,0.3,0.8,0.5c0,0,0,0.2,0,0.2l-1.3,5l-2.5-5.8
		c-0.1-0.2-0.1-0.2-0.3-0.2h-1.5c-0.2,0-0.3,0-0.3,0.2c0,0.1,0.1,0.1,0.3,0.1c0,0,0.8,0,0.8,0.1l-1.5,6c-0.1,0.4-0.3,0.8-1.2,0.8
		c-0.1,0-0.2,0-0.2,0.2c0,0.1,0,0.1,0.1,0.1c0.3,0,0.8,0,1.1,0s0.8,0,1.1,0c0,0,0.2,0,0.2-0.2c0-0.1-0.1-0.1-0.2-0.1
		c-0.6,0-0.7-0.3-0.7-0.5c0-0.1,0-0.1,0-0.3l1.5-5.9c0,0.1,0,0.1,0.1,0.2l2.8,6.6c0.1,0.2,0.1,0.2,0.2,0.2c0.1,0,0.1,0,0.2-0.2
		L30.1,23.4"/>
	<path class="st4" d="M42.6,28.3c0.1,0,0.4,0,0.4-0.2c0-0.2-0.2-0.2-0.4-0.2h-6.7c-0.2,0-0.4,0-0.4,0.2c0,0.2,0.2,0.2,0.4,0.2H42.6
		 M42.6,26.2c0.2,0,0.4,0,0.4-0.2c0-0.2-0.2-0.2-0.4-0.2h-6.7c-0.2,0-0.4,0-0.4,0.2c0,0.2,0.2,0.2,0.4,0.2H42.6z"/>
	<path class="st4" d="M48.5,26v3c0,0.5-0.1,0.5-0.9,0.5v0.3c0.4,0,1,0,1.3,0c0.3,0,0.9,0,1.3,0v-0.3c-0.8,0-0.9,0-0.9-0.5v-2
		c0-1.2,0.8-1.8,1.5-1.8c0.7,0,0.8,0.6,0.8,1.2V29c0,0.5-0.1,0.5-0.9,0.5v0.3c0.4,0,1,0,1.3,0c0.3,0,0.9,0,1.3,0v-0.3
		c-0.6,0-0.9,0-0.9-0.3V27c0-1,0-1.3-0.3-1.7c-0.2-0.2-0.5-0.4-1.2-0.4c-0.8,0-1.3,0.5-1.7,1.2v-1.2L47.6,25v0.3
		C48.4,25.3,48.5,25.4,48.5,26"/>
	<path class="st4" d="M57.5,28.9v1l1.6-0.1v-0.3c-0.8,0-0.9-0.1-0.9-0.6v-4L56.6,25v0.3c0.8,0,0.9,0.1,0.9,0.6v2
		c0,1-0.5,1.7-1.4,1.7c-0.9,0-1-0.5-1-1.1v-3.7L53.5,25v0.3c0.9,0,0.9,0,0.9,1V28c0,0.9,0,1.9,1.7,1.9
		C56.7,29.9,57.2,29.6,57.5,28.9"/>
	<path class="st4" d="M60.6,26v3c0,0.5-0.1,0.5-0.9,0.5v0.3c0.4,0,1,0,1.3,0c0.3,0,0.9,0,1.3,0v-0.3c-0.8,0-0.9,0-0.9-0.5v-2
		c0-1.2,0.8-1.8,1.5-1.8c0.7,0,0.8,0.6,0.8,1.2V29c0,0.5-0.1,0.5-0.9,0.5v0.3c0.4,0,1,0,1.3,0c0.3,0,0.9,0,1.2,0v-0.3
		c-0.7,0-0.9,0-0.9-0.5v-2c0-1.2,0.8-1.8,1.5-1.8c0.7,0,0.8,0.6,0.8,1.2V29c0,0.5-0.1,0.5-0.9,0.5v0.3c0.4,0,1,0,1.3,0
		c0.3,0,0.9,0,1.3,0v-0.3c-0.6,0-0.8,0-0.9-0.3V27c0-1,0-1.3-0.3-1.7c-0.2-0.2-0.5-0.4-1.2-0.4c-0.9,0-1.4,0.7-1.6,1.1
		c-0.2-1-1-1.1-1.5-1.1c-0.8,0-1.3,0.5-1.7,1.2v-1.2L59.7,25v0.3C60.5,25.3,60.6,25.4,60.6,26"/>
	<path class="st4" d="M70.3,28.5v-2.3c0-0.2,0-0.2,0.1-0.4c0.4-0.6,1.1-0.7,1.3-0.7c0.5,0,0.9,0.3,1.2,0.7c0.3,0.5,0.3,1.1,0.3,1.6
		c0,0.4,0,1.1-0.3,1.6c-0.3,0.3-0.7,0.7-1.3,0.7c-0.5,0-0.9-0.3-1.2-0.7C70.3,28.8,70.3,28.7,70.3,28.5 M70.2,25.6v-3.6l-1.6,0.1
		v0.3c0.8,0,0.9,0.1,0.9,0.6v6.6h0.3c0,0,0.1-0.2,0.4-0.7c0.2,0.3,0.6,0.8,1.5,0.8c1.3,0,2.5-1.1,2.5-2.5c0-1.4-1.1-2.5-2.4-2.5
		C70.9,24.9,70.4,25.4,70.2,25.6z"/>
	<path class="st4" d="M76.1,27.2h3.1c0.2,0,0.3,0,0.3-0.2c0-1.1-0.6-2.2-2-2.2c-1.3,0-2.3,1.1-2.3,2.5c0,1.5,1.2,2.6,2.5,2.6
		c1.4,0,1.9-1.2,1.9-1.5c0-0.1-0.1-0.1-0.1-0.1c-0.1,0-0.1,0-0.2,0.1c-0.4,1.2-1.4,1.2-1.5,1.2c-0.6,0-1-0.3-1.3-0.8
		C76.1,28.4,76.1,27.6,76.1,27.2 M76.1,27c0.1-1.7,1-1.9,1.4-1.9c1.1,0,1.3,1.5,1.3,1.9H76.1z"/>
	<path class="st4" d="M81.6,26.1v-1.2L80.1,25v0.3c0.8,0,0.9,0.1,0.9,0.6v3c0,0.5-0.1,0.5-0.9,0.5v0.3c0.4,0,1,0,1.3,0
		c0.4,0,1,0,1.4,0v-0.3h-0.2c-0.8,0-0.9-0.1-0.9-0.5v-1.7c0-1.1,0.5-2.1,1.3-2.1c0.1,0,0.1,0,0.1,0c0,0-0.3,0.1-0.3,0.4
		c0,0.3,0.2,0.5,0.5,0.5c0.2,0,0.5-0.1,0.5-0.5c0-0.4-0.3-0.7-0.8-0.7C82.2,24.9,81.8,25.6,81.6,26.1"/>
	<path class="st4" d="M90.6,29.7c-0.5,0-1-0.3-1.3-0.8c-0.3-0.5-0.3-1.2-0.3-1.6c0-0.4,0-1,0.3-1.5c0.3-0.5,0.8-0.7,1.3-0.7
		c0.5,0,1,0.2,1.3,0.7c0.3,0.5,0.3,1.1,0.3,1.6c0,0.4,0,1-0.3,1.5C91.7,29.3,91.2,29.7,90.6,29.7 M93.1,27.4c0-1.4-1.1-2.6-2.5-2.6
		c-1.4,0-2.5,1.2-2.5,2.6c0,1.4,1.2,2.5,2.5,2.5C92,29.9,93.1,28.8,93.1,27.4z"/>
	<path class="st4" d="M95.4,25v-1.3c0-1,0.5-1.5,1-1.5c0,0,0.2,0,0.4,0.1c-0.1,0-0.3,0.2-0.3,0.5c0,0.3,0.2,0.5,0.5,0.5
		c0.3,0,0.5-0.2,0.5-0.5c0-0.4-0.4-0.8-1-0.8c-0.8,0-1.7,0.6-1.7,1.8V25h-0.9v0.3h0.9V29c0,0.5-0.1,0.5-0.9,0.5v0.3c0.4,0,1,0,1.3,0
		c0.4,0,1,0,1.4,0v-0.3h-0.2c-0.8,0-0.9-0.1-0.9-0.5v-3.6h1.3V25H95.4"/>
	<path class="st4" d="M102.6,22.1l-1.6,0.1v0.3c0.8,0,0.9,0.1,0.9,0.6V29c0,0.5-0.1,0.5-0.9,0.5v0.3c0.4,0,1,0,1.3,0
		c0.3,0,0.8,0,1.2,0v-0.3c-0.8,0-0.9,0-0.9-0.5V22.1"/>
	<path class="st4" d="M105.7,22.9c0-0.4-0.3-0.6-0.6-0.6c-0.3,0-0.6,0.3-0.6,0.6c0,0.3,0.3,0.6,0.6,0.6
		C105.4,23.5,105.7,23.3,105.7,22.9 M105.7,24.9l-1.6,0.1v0.3c0.7,0,0.8,0.1,0.8,0.6v3c0,0.5-0.1,0.5-0.9,0.5v0.3c0.3,0,1,0,1.2,0
		c0.4,0,0.8,0,1.2,0v-0.3c-0.7,0-0.8,0-0.8-0.5V24.9z"/>
	<path class="st4" d="M108,26v3c0,0.5-0.1,0.5-0.9,0.5v0.3c0.4,0,1,0,1.3,0s0.9,0,1.3,0v-0.3c-0.8,0-0.9,0-0.9-0.5v-2
		c0-1.2,0.8-1.8,1.5-1.8c0.7,0,0.8,0.6,0.8,1.2V29c0,0.5-0.1,0.5-0.9,0.5v0.3c0.4,0,1,0,1.3,0c0.3,0,0.9,0,1.3,0v-0.3
		c-0.6,0-0.9,0-0.9-0.3V27c0-1,0-1.3-0.3-1.7c-0.2-0.2-0.5-0.4-1.2-0.4c-0.8,0-1.3,0.5-1.7,1.2v-1.2l-1.6,0.1v0.3
		C107.9,25.3,108,25.4,108,26"/>
	<path class="st4" d="M114.2,27.2h3.1c0.3,0,0.3,0,0.3-0.2c0-1.1-0.6-2.2-2-2.2c-1.3,0-2.3,1.1-2.3,2.5c0,1.5,1.2,2.6,2.5,2.6
		c1.4,0,1.9-1.2,1.9-1.5c0-0.1-0.1-0.1-0.2-0.1c-0.1,0-0.1,0-0.1,0.1c-0.4,1.2-1.4,1.2-1.5,1.2c-0.5,0-1-0.3-1.3-0.8
		C114.2,28.4,114.2,27.6,114.2,27.2 M114.2,27c0.1-1.7,1-1.9,1.4-1.9c1.1,0,1.3,1.5,1.3,1.9H114.2z"/>
	<path class="st4" d="M120.2,27.6c0.2,0,1.1,0.2,1.1,1c0,0.6-0.4,1-1.3,1c-0.9,0-1.3-0.6-1.6-1.6c0-0.2,0-0.2-0.1-0.2
		c-0.2,0-0.2,0.1-0.2,0.3v1.5c0,0.2,0,0.3,0.1,0.3c0,0,0.1,0,0.3-0.2c0,0,0,0,0.2-0.3c0.5,0.5,1,0.5,1.2,0.5c1.3,0,1.8-0.8,1.8-1.6
		c0-0.6-0.3-0.9-0.5-1.1c-0.4-0.4-0.8-0.5-1.3-0.6c-0.6-0.1-1.4-0.3-1.4-0.9c0-0.4,0.3-0.8,1.2-0.8c1.2,0,1.3,1,1.3,1.4
		c0,0.1,0.1,0.1,0.1,0.1c0.2,0,0.2-0.1,0.2-0.3v-1.1c0-0.2,0-0.3-0.1-0.3c0,0-0.1,0-0.2,0.1c0,0-0.1,0.1-0.2,0.2
		c-0.4-0.3-0.9-0.3-1.1-0.3c-1.4,0-1.8,0.8-1.8,1.4c0,0.4,0.2,0.7,0.5,0.9C119.1,27.4,119.4,27.5,120.2,27.6"/>
</g>
<g>
	<defs>
		<rect id="SVGID_3_" x="22.2" y="10.5" width="99.8" height="8.4"/>
	</defs>
	<clipPath id="SVGID_4_">
		<use xlink:href="#SVGID_3_"  style="overflow:visible;"/>
	</clipPath>
	<path class="st5" d="M23.2,17.8l1.2-1.1c1.7-1.6,2.4-2.2,2.4-3.3c0-1.3-1-2.2-2.4-2.2c-1.3,0-2.1,1-2.1,2c0,0.6,0.6,0.6,0.6,0.6
		c0.2,0,0.6-0.1,0.6-0.6c0-0.3-0.2-0.6-0.6-0.6c-0.1,0-0.1,0-0.2,0c0.3-0.7,0.9-1.1,1.5-1.1c1,0,1.5,0.9,1.5,1.8
		c0,0.9-0.6,1.8-1.2,2.5l-2.1,2.4c-0.1,0.1-0.1,0.2-0.1,0.4h4.1l0.3-1.9h-0.3c-0.1,0.3-0.1,0.8-0.3,1c-0.1,0.1-0.8,0.1-1.1,0.1H23.2
		"/>
	<path class="st5" d="M30.3,14.5h1.3c-0.4,1.7-0.5,2.1-0.5,2.9c0,0.2,0,0.5,0.1,0.8c0.1,0.5,0.2,0.6,0.4,0.6c0.2,0,0.5-0.2,0.5-0.4
		c0-0.1,0-0.1-0.1-0.2c-0.3-0.8-0.3-1.5-0.3-1.9c0-0.6,0.1-1.2,0.2-1.8h1.3c0.1,0,0.6,0,0.6-0.4c0-0.3-0.2-0.3-0.5-0.3h-3.7
		c-0.3,0-0.7,0-1.2,0.5c-0.4,0.4-0.7,1-0.7,1c0,0,0,0.1,0.1,0.1c0.1,0,0.1,0,0.2-0.1c0.6-0.8,1.2-0.8,1.4-0.8H30
		c-0.4,1.4-1,2.7-1.4,3.7c-0.1,0.2-0.1,0.2-0.1,0.3c0,0.2,0.2,0.3,0.3,0.3c0.3,0,0.4-0.3,0.6-0.7c0.2-0.5,0.2-0.5,0.3-1.1L30.3,14.5
		"/>
	<path class="st5" d="M35.1,18c0,0.2-0.1,0.4-0.1,0.5c0,0.2,0.1,0.3,0.3,0.3c0.1,0,0.3-0.1,0.4-0.3c0,0,0.4-1.6,0.4-1.8
		c0.1-0.4,0.3-1.1,0.4-1.4c0-0.2,0.3-0.7,0.6-0.9c0.1-0.1,0.4-0.4,0.9-0.4c0.3,0,0.5,0.1,0.5,0.1c-0.3,0.1-0.6,0.3-0.6,0.6
		c0,0.2,0.1,0.4,0.4,0.4c0.3,0,0.6-0.3,0.6-0.6c0-0.4-0.4-0.7-0.9-0.7c-0.7,0-1.2,0.6-1.4,0.8c-0.1-0.5-0.5-0.8-1-0.8
		c-0.5,0-0.7,0.4-0.8,0.6c-0.2,0.4-0.3,1.1-0.3,1.1c0,0.1,0.1,0.1,0.1,0.1c0.1,0,0.1,0,0.2-0.3c0.2-0.8,0.4-1.3,0.8-1.3
		c0.2,0,0.3,0.1,0.3,0.5c0,0.2,0,0.4-0.2,0.9L35.1,18"/>
	<path class="st5" d="M50.9,17.1c0.2,0,0.4,0,0.4-0.2c0-0.2-0.2-0.2-0.4-0.2h-6.7c-0.2,0-0.4,0-0.4,0.2c0,0.2,0.2,0.2,0.4,0.2H50.9
		 M50.9,15c0.2,0,0.4,0,0.4-0.2c0-0.2-0.2-0.2-0.4-0.2h-6.7c-0.2,0-0.4,0-0.4,0.2c0,0.2,0.2,0.2,0.4,0.2H50.9z"/>
	<path class="st5" d="M56.9,16.2c0-1.8,0.9-2.3,1.5-2.3c0.1,0,0.8,0,1.2,0.4c-0.5,0-0.5,0.4-0.5,0.5c0,0.3,0.2,0.5,0.5,0.5
		c0.3,0,0.5-0.2,0.5-0.5c0-0.8-0.8-1.2-1.7-1.2c-1.4,0-2.4,1.2-2.4,2.6c0,1.4,1.1,2.5,2.4,2.5c1.5,0,1.9-1.4,1.9-1.5
		c0-0.1-0.1-0.1-0.2-0.1c-0.1,0-0.1,0-0.1,0.1c-0.3,1.1-1.1,1.2-1.5,1.2C57.8,18.5,56.9,18,56.9,16.2"/>
	<path class="st5" d="M62.6,11.7c0-0.4-0.3-0.6-0.6-0.6c-0.3,0-0.6,0.3-0.6,0.6c0,0.3,0.2,0.6,0.6,0.6
		C62.3,12.3,62.6,12.1,62.6,11.7 M62.5,13.7L61,13.8v0.3c0.7,0,0.8,0.1,0.8,0.6v3c0,0.5-0.1,0.5-0.9,0.5v0.3c0.4,0,1,0,1.2,0
		c0.4,0,0.8,0,1.1,0v-0.3c-0.7,0-0.8,0-0.8-0.5V13.7z"/>
	<path class="st5" d="M65.5,14.9v-1.2L64,13.8v0.3c0.8,0,0.9,0.1,0.9,0.6v3c0,0.5-0.1,0.5-0.9,0.5v0.3c0.4,0,1,0,1.3,0
		c0.5,0,1,0,1.4,0v-0.3h-0.2c-0.8,0-0.8-0.1-0.8-0.5V16c0-1.1,0.5-2.1,1.3-2.1c0.1,0,0.1,0,0.1,0c0,0-0.3,0.1-0.3,0.4
		c0,0.3,0.2,0.5,0.5,0.5c0.2,0,0.5-0.1,0.5-0.5c0-0.4-0.3-0.7-0.8-0.7C66.1,13.7,65.7,14.4,65.5,14.9"/>
	<path class="st5" d="M69.3,16.2c0-1.8,0.9-2.3,1.5-2.3c0.1,0,0.8,0,1.2,0.4c-0.5,0-0.5,0.4-0.5,0.5c0,0.3,0.2,0.5,0.5,0.5
		c0.3,0,0.5-0.2,0.5-0.5c0-0.8-0.8-1.2-1.7-1.2c-1.4,0-2.4,1.2-2.4,2.6c0,1.4,1.1,2.5,2.4,2.5c1.5,0,1.9-1.4,1.9-1.5
		c0-0.1-0.1-0.1-0.1-0.1c-0.1,0-0.1,0-0.1,0.1c-0.3,1.1-1.1,1.2-1.5,1.2C70.2,18.5,69.3,18,69.3,16.2"/>
	<path class="st5" d="M77.3,17.7v1l1.6-0.1v-0.3c-0.8,0-0.9-0.1-0.9-0.6v-4l-1.7,0.1v0.3c0.8,0,0.9,0.1,0.9,0.6v2
		c0,1-0.5,1.7-1.4,1.7c-0.9,0-1-0.5-1-1.1v-3.7l-1.7,0.1v0.3c0.9,0,0.9,0,0.9,1v1.7c0,0.9,0,1.9,1.7,1.9
		C76.5,18.8,77,18.4,77.3,17.7"/>
	<path class="st5" d="M80.4,14.8v3c0,0.5-0.1,0.5-0.9,0.5v0.3c0.4,0,1,0,1.3,0c0.3,0,0.9,0,1.3,0v-0.3c-0.8,0-0.9,0-0.9-0.5v-2
		c0-1.2,0.8-1.8,1.5-1.8c0.7,0,0.8,0.6,0.8,1.2v2.6c0,0.5-0.1,0.5-0.9,0.5v0.3c0.4,0,1,0,1.3,0c0.3,0,0.9,0,1.2,0v-0.3
		c-0.8,0-0.9,0-0.9-0.5v-2c0-1.2,0.8-1.8,1.5-1.8c0.7,0,0.8,0.6,0.8,1.2v2.6c0,0.5-0.1,0.5-0.9,0.5v0.3c0.4,0,1,0,1.3,0
		c0.3,0,0.9,0,1.3,0v-0.3c-0.6,0-0.9,0-0.9-0.3v-2.1c0-1,0-1.3-0.3-1.7c-0.2-0.2-0.5-0.4-1.2-0.4c-0.9,0-1.4,0.7-1.6,1.1
		c-0.2-1-1-1.1-1.5-1.1c-0.8,0-1.4,0.5-1.7,1.2v-1.2l-1.6,0.1v0.3C80.3,14.1,80.4,14.2,80.4,14.8"/>
	<path class="st5" d="M90.4,13.8v-1.3c0-1,0.6-1.5,1-1.5c0,0,0.2,0,0.4,0.1c-0.1,0-0.3,0.2-0.3,0.5c0,0.3,0.2,0.5,0.5,0.5
		c0.3,0,0.5-0.2,0.5-0.5c0-0.4-0.4-0.8-1-0.8c-0.8,0-1.7,0.6-1.7,1.8v1.3h-0.9v0.3h0.9v3.6c0,0.5-0.1,0.5-0.9,0.5v0.3
		c0.4,0,1,0,1.3,0c0.4,0,1,0,1.4,0v-0.3h-0.2c-0.8,0-0.8-0.1-0.8-0.5v-3.6h1.3v-0.3H90.4"/>
	<path class="st5" d="M93,16h3.1c0.3,0,0.3,0,0.3-0.2c0-1.1-0.6-2.2-2-2.2c-1.3,0-2.3,1.1-2.3,2.5c0,1.5,1.2,2.6,2.5,2.6
		c1.4,0,1.9-1.2,1.9-1.5c0-0.1-0.1-0.1-0.2-0.1c-0.1,0-0.1,0-0.1,0.1c-0.4,1.2-1.4,1.2-1.5,1.2c-0.6,0-1-0.3-1.3-0.8
		C93,17.2,93,16.4,93,16 M93.1,15.8c0.1-1.7,1-1.9,1.4-1.9c1.2,0,1.3,1.5,1.3,1.9H93.1z"/>
	<path class="st5" d="M98.6,14.9v-1.2l-1.5,0.1v0.3c0.8,0,0.9,0.1,0.9,0.6v3c0,0.5-0.1,0.5-0.9,0.5v0.3c0.4,0,1,0,1.3,0
		c0.5,0,1,0,1.4,0v-0.3h-0.2c-0.8,0-0.8-0.1-0.8-0.5V16c0-1.1,0.5-2.1,1.3-2.1c0.1,0,0.1,0,0.1,0c0,0-0.3,0.1-0.3,0.4
		c0,0.3,0.2,0.5,0.5,0.5c0.2,0,0.5-0.1,0.5-0.5c0-0.4-0.4-0.7-0.8-0.7C99.2,13.7,98.8,14.4,98.6,14.9"/>
	<path class="st5" d="M102.4,16h3.1c0.3,0,0.3,0,0.3-0.2c0-1.1-0.6-2.2-2-2.2c-1.3,0-2.3,1.1-2.3,2.5c0,1.5,1.2,2.6,2.5,2.6
		c1.4,0,1.9-1.2,1.9-1.5c0-0.1-0.1-0.1-0.1-0.1c-0.1,0-0.1,0-0.2,0.1c-0.4,1.2-1.4,1.2-1.5,1.2c-0.5,0-1-0.3-1.3-0.8
		C102.4,17.2,102.4,16.4,102.4,16 M102.4,15.8c0.1-1.7,1-1.9,1.4-1.9c1.1,0,1.3,1.5,1.3,1.9H102.4z"/>
	<path class="st5" d="M107.3,14.8v3c0,0.5-0.1,0.5-0.9,0.5v0.3c0.4,0,1,0,1.3,0s0.9,0,1.3,0v-0.3c-0.8,0-0.9,0-0.9-0.5v-2
		c0-1.2,0.8-1.8,1.5-1.8c0.7,0,0.8,0.6,0.8,1.2v2.6c0,0.5-0.1,0.5-0.9,0.5v0.3c0.4,0,1,0,1.3,0c0.3,0,0.9,0,1.3,0v-0.3
		c-0.6,0-0.9,0-0.9-0.3v-2.1c0-1,0-1.3-0.4-1.7c-0.1-0.2-0.5-0.4-1.2-0.4c-0.8,0-1.3,0.5-1.7,1.2v-1.2l-1.6,0.1v0.3
		C107.2,14.1,107.3,14.2,107.3,14.8"/>
	<path class="st5" d="M113.6,16.2c0-1.8,0.9-2.3,1.5-2.3c0.1,0,0.8,0,1.2,0.4c-0.5,0-0.5,0.4-0.5,0.5c0,0.3,0.2,0.5,0.5,0.5
		c0.3,0,0.5-0.2,0.5-0.5c0-0.8-0.8-1.2-1.7-1.2c-1.4,0-2.4,1.2-2.4,2.6c0,1.4,1.1,2.5,2.4,2.5c1.5,0,1.9-1.4,1.9-1.5
		c0-0.1-0.1-0.1-0.1-0.1c-0.1,0-0.1,0-0.1,0.1c-0.3,1.1-1.1,1.2-1.5,1.2C114.6,18.5,113.6,18,113.6,16.2"/>
	<path class="st5" d="M118.5,16h3.1c0.3,0,0.3,0,0.3-0.2c0-1.1-0.6-2.2-2-2.2c-1.3,0-2.3,1.1-2.3,2.5c0,1.5,1.2,2.6,2.5,2.6
		c1.4,0,1.9-1.2,1.9-1.5c0-0.1-0.1-0.1-0.1-0.1c-0.1,0-0.1,0-0.1,0.1c-0.4,1.2-1.4,1.2-1.5,1.2c-0.6,0-1-0.3-1.3-0.8
		C118.5,17.2,118.5,16.4,118.5,16 M118.5,15.8c0.1-1.7,1-1.9,1.4-1.9c1.1,0,1.3,1.5,1.3,1.9H118.5z"/>
</g>
<g>
	<defs>
		<rect id="SVGID_5_" x="138.3" y="58.3" width="5.2" height="5.7"/>
	</defs>
	<clipPath id="SVGID_6_">
		<use xlink:href="#SVGID_5_"  style="overflow:visible;"/>
	</clipPath>
	<path class="st6" d="M139.2,63.1c0,0.2-0.1,0.4-0.1,0.5c0,0.2,0.2,0.3,0.3,0.3c0.1,0,0.3-0.1,0.4-0.3c0,0,0.4-1.6,0.4-1.8
		c0.1-0.4,0.3-1.2,0.4-1.5c0-0.1,0.4-0.7,0.6-0.9c0.1-0.1,0.4-0.4,0.9-0.4c0.3,0,0.5,0.1,0.5,0.1c-0.3,0-0.6,0.3-0.6,0.6
		c0,0.2,0.1,0.4,0.4,0.4s0.6-0.3,0.6-0.7c0-0.4-0.4-0.7-0.9-0.7c-0.7,0-1.2,0.6-1.4,0.9c-0.1-0.5-0.5-0.9-1-0.9s-0.7,0.4-0.8,0.6
		c-0.2,0.4-0.4,1.1-0.4,1.1c0,0.1,0.1,0.1,0.1,0.1c0.1,0,0.1,0,0.2-0.3c0.2-0.8,0.4-1.3,0.8-1.3c0.2,0,0.3,0.1,0.3,0.5
		c0,0.2,0,0.3-0.2,0.9L139.2,63.1"/>
</g>
<g>
	<path class="st1" d="M177.8,44.5c9,0.4,28,23.7,28.4,49.1"/>
	<g>
		<path class="st7" d="M180.7,45.3c9.2,4.1,23.8,23.6,25.4,45.3"/>
		<g>
			<path d="M177.8,44.5c1.2,0.9,2.7,2.2,3.5,3.4l-0.2-2.5l1.5-2.1C181.2,44,179.3,44.4,177.8,44.5z"/>
		</g>
		<g>
			<path d="M206.2,93.6c-0.6-1.4-1.6-3.1-2.6-4.1l2.4,0.7l2.3-1C207.4,90.3,206.6,92.1,206.2,93.6z"/>
		</g>
	</g>
</g>
<g>
	<defs>
		<rect id="SVGID_7_" x="164.2" y="23.8" width="92" height="13.8"/>
	</defs>
	<clipPath id="SVGID_8_">
		<use xlink:href="#SVGID_7_"  style="overflow:visible;"/>
	</clipPath>
	<path class="st8" d="M168.2,27.8h-0.3c0,0.2-0.1,0.6-0.2,0.7c0,0-0.6,0-0.8,0h-1.4c0.8-0.7,1.1-0.9,1.5-1.3
		c0.6-0.5,1.1-0.9,1.1-1.7c0-0.9-0.8-1.5-1.8-1.5c-1,0-1.6,0.7-1.6,1.4c0,0.4,0.3,0.4,0.4,0.4c0.2,0,0.4-0.1,0.4-0.4
		c0-0.2,0-0.4-0.5-0.4c0.3-0.6,0.8-0.7,1.1-0.7c0.8,0,1.2,0.6,1.2,1.2c0,0.7-0.5,1.2-0.7,1.5l-1.9,1.9c-0.1,0.1-0.1,0.1-0.1,0.3h3.2
		L168.2,27.8"/>
	<path class="st8" d="M171.1,26.4h0.9c-0.1,0.5-0.3,1.2-0.3,1.8c0,0.3,0,0.5,0.1,0.7c0.1,0.4,0.2,0.4,0.3,0.4c0.2,0,0.4-0.2,0.4-0.3
		c0-0.1,0-0.1-0.1-0.2c-0.1-0.3-0.3-0.7-0.3-1.4c0-0.2,0-0.5,0.1-1h1c0.1,0,0.2,0,0.3-0.1c0.1-0.1,0.1-0.2,0.1-0.2
		c0-0.2-0.2-0.2-0.3-0.2h-2.9c-0.3,0-0.5,0.1-0.9,0.4c-0.2,0.2-0.5,0.6-0.5,0.7c0,0.1,0.1,0.1,0.1,0.1c0.1,0,0.1,0,0.1-0.1
		c0.4-0.5,0.9-0.5,1.1-0.5h0.5c-0.3,0.8-0.7,1.8-0.9,2.2c0,0.1-0.1,0.3-0.2,0.3c0,0,0,0.1,0,0.1c0,0.1,0.1,0.3,0.3,0.3
		c0.3,0,0.4-0.3,0.6-1.1L171.1,26.4"/>
	<path class="st8" d="M176.1,27.7c0,0,0.2-0.7,0.2-0.8c0-0.1,0.2-0.5,0.5-0.6c0.1,0,0.3-0.2,0.6-0.2c0.1,0,0.3,0,0.4,0.1
		c-0.3,0.1-0.3,0.3-0.3,0.4c0,0.2,0.1,0.3,0.3,0.3s0.4-0.2,0.4-0.5c0-0.4-0.4-0.6-0.8-0.6c-0.4,0-0.8,0.2-1.1,0.6
		c-0.1-0.5-0.6-0.6-0.8-0.6c-0.3,0-0.5,0.2-0.6,0.4c-0.2,0.3-0.3,0.7-0.3,0.8c0,0.1,0.1,0.1,0.1,0.1c0.1,0,0.1,0,0.2-0.3
		c0.1-0.5,0.3-0.8,0.6-0.8c0.2,0,0.3,0.2,0.3,0.4c0,0.2-0.1,0.4-0.1,0.7c0,0.2-0.1,0.5-0.2,0.7l-0.3,1c0,0.1-0.1,0.3-0.1,0.3
		c0,0.2,0.1,0.3,0.3,0.3c0.1,0,0.3-0.1,0.3-0.2c0,0,0.1-0.4,0.2-0.6L176.1,27.7"/>
	<line class="st9" x1="164.3" y1="30.8" x2="178.6" y2="30.8"/>
	<path class="st8" d="M174,33.1c0.1-0.3,0.2-0.6,0.8-0.6c0,0,0.2,0,0.2-0.2c0,0,0-0.1-0.1-0.1c-0.3,0-0.5,0-0.8,0
		c-0.2,0-0.6,0-0.8,0c0,0-0.1,0-0.1,0.2c0,0.1,0.1,0.1,0.2,0.1c0.4,0,0.5,0.1,0.5,0.3c0,0.1,0,0.1,0,0.2l-0.8,3.4l-2-4
		c0-0.1-0.1-0.1-0.3-0.1h-1.1c-0.2,0-0.3,0-0.3,0.2c0,0.1,0.1,0.1,0.3,0.1c0.2,0,0.3,0,0.5,0l-1.1,4.1c-0.1,0.3-0.2,0.5-0.8,0.6
		c0,0-0.2,0-0.2,0.2c0,0.1,0.1,0.1,0.1,0.1c0.3,0,0.6,0,0.8,0c0.2,0,0.6,0,0.8,0c0.1,0,0.2,0,0.2-0.2c0-0.1-0.1-0.1-0.2-0.1
		c-0.5,0-0.5-0.2-0.5-0.3c0,0,0-0.1,0-0.2l1-4l2.3,4.6c0.1,0.1,0.1,0.1,0.2,0.1c0.1,0,0.1,0,0.2-0.2L174,33.1"/>
	<path class="st8" d="M190.7,32.1c0.2,0,0.4,0,0.4-0.2c0-0.2-0.2-0.2-0.4-0.2H184c-0.2,0-0.4,0-0.4,0.2c0,0.2,0.2,0.2,0.4,0.2H190.7
		 M190.7,30c0.2,0,0.4,0,0.4-0.2s-0.2-0.2-0.4-0.2H184c-0.2,0-0.4,0-0.4,0.2s0.2,0.2,0.4,0.2H190.7z"/>
	<path class="st8" d="M197.7,31.5c0.2,0,1.1,0.2,1.1,1c0,0.6-0.4,1-1.3,1c-0.9,0-1.3-0.6-1.5-1.6c0-0.2,0-0.2-0.2-0.2
		c-0.2,0-0.2,0.1-0.2,0.3v1.5c0,0.2,0,0.3,0.1,0.3c0,0,0.1,0,0.3-0.2c0,0,0,0,0.2-0.3c0.5,0.5,1,0.5,1.2,0.5c1.3,0,1.8-0.8,1.8-1.6
		c0-0.6-0.3-0.9-0.5-1.1c-0.4-0.3-0.8-0.4-1.3-0.5c-0.6-0.1-1.4-0.3-1.4-0.9c0-0.4,0.3-0.8,1.2-0.8c1.2,0,1.3,1,1.3,1.4
		c0,0.1,0.1,0.1,0.1,0.1c0.2,0,0.2,0,0.2-0.3v-1.1c0-0.2,0-0.3-0.1-0.3c0,0-0.1,0-0.2,0.1c0,0-0.2,0.1-0.2,0.2
		c-0.4-0.3-0.9-0.3-1.1-0.3c-1.4,0-1.8,0.7-1.8,1.4c0,0.4,0.2,0.7,0.5,0.9C196.6,31.3,196.9,31.3,197.7,31.5"/>
	<path class="st8" d="M201.7,29.2h1.6v-0.3h-1.6v-2.1h-0.3c0,0.9-0.3,2.1-1.4,2.2v0.3h1v3.1c0,1.4,1,1.5,1.4,1.5
		c0.8,0,1.1-0.8,1.1-1.5v-0.6h-0.3v0.6c0,0.8-0.3,1.2-0.8,1.2c-0.8,0-0.8-1-0.8-1.2V29.2"/>
	<path class="st8" d="M206.9,33.5c-0.5,0-1-0.2-1.3-0.7c-0.3-0.5-0.3-1.2-0.3-1.6c0-0.4,0-1,0.3-1.5c0.3-0.5,0.8-0.8,1.3-0.8
		c0.5,0,1,0.3,1.3,0.7c0.3,0.5,0.3,1.1,0.3,1.6c0,0.4,0,1-0.3,1.5C207.9,33.2,207.5,33.5,206.9,33.5 M209.4,31.3
		c0-1.4-1.1-2.6-2.5-2.6c-1.4,0-2.5,1.2-2.5,2.6c0,1.4,1.2,2.5,2.5,2.5C208.2,33.8,209.4,32.7,209.4,31.3z"/>
	<path class="st8" d="M211.7,32.4v-2.5c0.3-0.6,0.9-0.9,1.4-0.9c0.8,0,1.5,1,1.5,2.2c0,1.4-0.8,2.3-1.6,2.3c-0.4,0-0.9-0.2-1.2-0.7
		C211.7,32.6,211.7,32.6,211.7,32.4 M211.6,29.4v-0.7l-1.6,0.1v0.3c0.8,0,0.9,0.1,0.9,0.6V35c0,0.5-0.1,0.5-0.9,0.5v0.3
		c0.4,0,1,0,1.3,0c0.3,0,0.9,0,1.3,0v-0.3c-0.8,0-0.9,0-0.9-0.5v-2c0,0.2,0.5,0.8,1.4,0.8c1.3,0,2.5-1.1,2.5-2.5
		c0-1.4-1.1-2.5-2.3-2.5C212.3,28.7,211.8,29.2,211.6,29.4z"/>
	<path class="st8" d="M221.9,31.5c0.3,0,1.2,0.2,1.2,1c0,0.6-0.4,1-1.3,1c-0.9,0-1.4-0.6-1.6-1.6c0-0.2,0-0.2-0.2-0.2
		c-0.1,0-0.1,0.1-0.1,0.3v1.5c0,0.2,0,0.3,0.1,0.3c0,0,0.1,0,0.3-0.2c0,0,0,0,0.2-0.3c0.5,0.5,1,0.5,1.2,0.5c1.3,0,1.8-0.8,1.8-1.6
		c0-0.6-0.3-0.9-0.5-1.1c-0.4-0.3-0.8-0.4-1.3-0.5c-0.6-0.1-1.4-0.3-1.4-0.9c0-0.4,0.3-0.8,1.3-0.8c1.2,0,1.3,1,1.3,1.4
		c0,0.1,0.1,0.1,0.1,0.1c0.1,0,0.1,0,0.1-0.3v-1.1c0-0.2,0-0.3-0.1-0.3c-0.1,0-0.1,0-0.2,0.1c0,0-0.1,0.1-0.2,0.2
		c-0.4-0.3-0.9-0.3-1.1-0.3c-1.4,0-1.8,0.7-1.8,1.4c0,0.4,0.2,0.7,0.5,0.9C220.8,31.3,221.1,31.3,221.9,31.5"/>
	<path class="st8" d="M225.9,32.4v-2.5c0.3-0.6,0.9-0.9,1.4-0.9c0.8,0,1.5,1,1.5,2.2c0,1.4-0.8,2.3-1.6,2.3c-0.5,0-0.9-0.2-1.2-0.7
		C225.9,32.6,225.9,32.6,225.9,32.4 M225.9,29.4v-0.7l-1.6,0.1v0.3c0.8,0,0.9,0.1,0.9,0.6V35c0,0.5-0.1,0.5-0.9,0.5v0.3
		c0.4,0,1,0,1.2,0c0.3,0,0.9,0,1.3,0v-0.3c-0.7,0-0.9,0-0.9-0.5v-2c0.1,0.2,0.5,0.8,1.4,0.8c1.4,0,2.5-1.1,2.5-2.5
		c0-1.4-1.1-2.5-2.3-2.5C226.6,28.7,226.1,29.2,225.9,29.4z"/>
	<path class="st8" d="M233.8,31v1.1c0,1.1-0.8,1.4-1.3,1.4c-0.5,0-1-0.4-1-1C231.5,32,232,31,233.8,31 M233.9,32.8
		c0,0.5,0.3,0.9,0.9,0.9c0.2,0,0.9-0.2,0.9-1.1V32h-0.3v0.6c0,0.6-0.3,0.7-0.4,0.7c-0.4,0-0.4-0.5-0.4-0.6v-2.2c0-0.5,0-0.9-0.4-1.3
		c-0.4-0.5-1-0.6-1.5-0.6c-0.9,0-1.7,0.5-1.7,1.3c0,0.3,0.2,0.5,0.5,0.5c0.3,0,0.5-0.2,0.5-0.5c0-0.1,0-0.5-0.6-0.5
		c0.3-0.4,0.8-0.5,1.2-0.5c0.5,0,1.2,0.4,1.2,1.4v0.4c-0.6,0-1.4,0.1-2.1,0.4c-0.8,0.4-1.1,1-1.1,1.5c0,0.9,1.1,1.2,1.8,1.2
		C233.2,33.8,233.7,33.3,233.9,32.8z"/>
	<path class="st8" d="M237.1,31.2c0-1.8,0.9-2.3,1.5-2.3c0.1,0,0.8,0,1.2,0.4c-0.5,0-0.5,0.4-0.5,0.5c0,0.3,0.2,0.5,0.5,0.5
		s0.5-0.2,0.5-0.5c0-0.8-0.8-1.2-1.7-1.2c-1.4,0-2.4,1.2-2.4,2.6c0,1.4,1.1,2.5,2.4,2.5c1.5,0,1.9-1.4,1.9-1.5s-0.1-0.1-0.1-0.1
		c-0.1,0-0.1,0-0.2,0.1c-0.3,1.1-1,1.2-1.5,1.2C238.1,33.5,237.1,33,237.1,31.2"/>
	<path class="st8" d="M242.8,26.8c0-0.4-0.3-0.6-0.6-0.6c-0.3,0-0.6,0.3-0.6,0.6c0,0.3,0.3,0.6,0.6,0.6
		C242.5,27.4,242.8,27.1,242.8,26.8 M242.8,28.7l-1.6,0.1v0.3c0.7,0,0.8,0.1,0.8,0.6v3c0,0.5-0.1,0.5-0.9,0.5v0.3c0.4,0,1,0,1.2,0
		c0.4,0,0.8,0,1.2,0v-0.3c-0.7,0-0.8,0-0.8-0.5V28.7z"/>
	<path class="st8" d="M245.1,29.8v3c0,0.5-0.1,0.5-0.9,0.5v0.3c0.4,0,1,0,1.3,0s0.9,0,1.3,0v-0.3c-0.8,0-0.9,0-0.9-0.5v-2.1
		c0-1.1,0.8-1.8,1.5-1.8c0.7,0,0.8,0.6,0.8,1.2v2.6c0,0.5-0.1,0.5-0.9,0.5v0.3c0.4,0,1,0,1.3,0s0.9,0,1.3,0v-0.3
		c-0.6,0-0.9,0-0.9-0.3v-2.1c0-1,0-1.3-0.4-1.7c-0.1-0.2-0.5-0.4-1.2-0.4c-0.8,0-1.3,0.5-1.7,1.2v-1.2l-1.6,0.1v0.3
		C245,29.2,245.1,29.3,245.1,29.8"/>
	<path class="st8" d="M252.9,35.7c-1.1,0-1.9-0.6-1.9-1.1c0-0.5,0.4-0.9,0.9-1h0.7c1,0,2.2,0,2.2,1C254.7,35.1,254,35.7,252.9,35.7
		 M251.3,32.1c0,0,0-0.3,0.2-0.5c0.4,0.3,0.9,0.4,1.1,0.4c1.1,0,1.8-0.8,1.8-1.7c0-0.4-0.2-0.8-0.5-1.1c0.4-0.4,0.8-0.4,1-0.4
		c0,0,0.1,0,0.1,0c-0.1,0-0.2,0.2-0.2,0.3c0,0.2,0.2,0.3,0.3,0.3c0.1,0,0.3-0.1,0.3-0.3c0-0.2-0.1-0.6-0.6-0.6
		c-0.2,0-0.7,0.1-1.2,0.5c-0.5-0.4-0.9-0.4-1.2-0.4c-1,0-1.8,0.8-1.8,1.6c0,0.5,0.3,0.9,0.5,1.1c-0.1,0.2-0.3,0.6-0.3,0.9
		c0,0.3,0.1,0.8,0.5,1c-0.7,0.2-1,0.7-1,1.1c0,0.8,1.1,1.4,2.5,1.4c1.3,0,2.5-0.6,2.5-1.4c0-0.4-0.2-1-0.7-1.3
		c-0.6-0.3-1.2-0.3-1.9-0.3c-0.3,0-0.8,0-0.8,0C251.5,32.9,251.3,32.5,251.3,32.1z M252.5,31.7c-1,0-1-1.1-1-1.4
		c0-0.3,0-0.6,0.2-0.9c0.1-0.1,0.3-0.4,0.8-0.4c1,0,1,1.1,1,1.4c0,0.3,0,0.7-0.2,0.9C253.3,31.4,253,31.7,252.5,31.7z"/>
</g>
</svg>
